<svg width="317" height="363" viewBox="0 0 317 363" fill="none" xmlns="http://www.w3.org/2000/svg">
<rect x="48" y="141" width="248" height="198" fill="#F28C30"/>
<path fill-rule="evenodd" clip-rule="evenodd" d="M214.906 79.4062C214.906 64.3635 208.963 49.9369 198.385 39.3C187.807 28.6632 173.46 22.6875 158.5 22.6875C143.54 22.6875 129.193 28.6632 118.615 39.3C108.037 49.9369 102.094 64.3635 102.094 79.4062V90.75H214.906V79.4062ZM237.469 79.4062V90.75H316.438V317.625C316.438 329.659 311.683 341.2 303.221 349.71C294.758 358.219 283.28 363 271.312 363H45.6875C33.7196 363 22.2419 358.219 13.7793 349.71C5.31673 341.2 0.5625 329.659 0.5625 317.625V90.75H79.5312V79.4062C79.5312 58.3464 87.8512 38.1491 102.661 23.2576C117.47 8.36599 137.556 0 158.5 0C179.444 0 199.53 8.36599 214.339 23.2576C229.149 38.1491 237.469 58.3464 237.469 79.4062V79.4062ZM222.893 200.875C225.012 198.745 226.202 195.856 226.202 192.844C226.202 189.831 225.012 186.942 222.893 184.812C220.775 182.682 217.902 181.486 214.906 181.486C211.91 181.486 209.037 182.682 206.919 184.812L147.219 244.866L121.362 218.844C120.313 217.789 119.068 216.952 117.698 216.381C116.327 215.811 114.858 215.517 113.375 215.517C111.892 215.517 110.423 215.811 109.052 216.381C107.682 216.952 106.437 217.789 105.388 218.844C104.339 219.898 103.507 221.15 102.939 222.528C102.372 223.906 102.079 225.383 102.079 226.875C102.079 228.367 102.372 229.844 102.939 231.222C103.507 232.6 104.339 233.852 105.388 234.906L139.232 268.938C140.28 269.994 141.524 270.832 142.895 271.404C144.266 271.976 145.735 272.27 147.219 272.27C148.703 272.27 150.172 271.976 151.542 271.404C152.913 270.832 154.158 269.994 155.206 268.938L222.893 200.875V200.875Z" fill="white"/>
</svg>
